<svg xmlns="http://www.w3.org/2000/svg" viewBox="0 0 24 24" width="24" height="24">
  <defs>
    <linearGradient id="g" x1="0%" y1="0%" x2="100%" y2="100%">
      <stop offset="0%"   stop-color="#e040a8"/>
      <stop offset="50%"  stop-color="#8b5cf6"/>
      <stop offset="100%" stop-color="#38b8f2"/>
    </linearGradient>
  </defs>
  <!-- Folder body -->
  <rect x="2" y="7" width="20" height="13" rx="2" fill="url(#g)" opacity="0.9"/>
  <!-- Folder tab -->
  <path d="M2 7 L2 5 Q2 4 3 4 L9 4 L11 7 Z" fill="url(#g)"/>
  <!-- Play triangle -->
  <polygon points="9.5,10.5 9.5,16.5 16,13.5" fill="white" opacity="0.92"/>
  <!-- Download arrow shaft -->
  <rect x="11.5" y="10.5" width="2" height="4.5" rx="0.5" fill="white" opacity="0.92"/>
  <!-- Download arrow head -->
  <polygon points="10,14.5 12.5,17.5 15,14.5" fill="white" opacity="0.92"/>
  <!-- Download base line -->
  <rect x="10" y="18" width="5" height="1.2" rx="0.5" fill="white" opacity="0.85"/>
  <!-- Sparkle pixels -->
  <rect x="19"   y="4"   width="1.5" height="1.5" rx="0.3" fill="#e040a8" opacity="0.9"/>
  <rect x="21"   y="2"   width="1"   height="1"   rx="0.2" fill="#38b8f2" opacity="0.8"/>
  <rect x="17.5" y="2.5" width="1"   height="1"   rx="0.2" fill="#8b5cf6" opacity="0.85"/>
  <rect x="20.5" y="5.5" width="0.8" height="0.8" rx="0.2" fill="#e040a8" opacity="0.7"/>
</svg>
